<?xml version="1.0" encoding="UTF-8"?>
<svg width="32px" height="32px" viewBox="0 0 32 32" version="1.1" xmlns="http://www.w3.org/2000/svg" xmlns:xlink="http://www.w3.org/1999/xlink">
    <title>MKTools_icn_32px</title>
    <g id="MKTools_icn_32px" stroke="none" stroke-width="1" fill="none" fill-rule="evenodd">
        <g id="Bildteil">
            <circle id="Oval" fill="#1068C9" cx="16" cy="16" r="16"></circle>
            <g id="Group" transform="translate(5, 5.1)">
                <rect id="Rectangle" fill-opacity="0.6" fill="#FFFFFF" x="0" y="6" width="22" height="13" rx="1"></rect>
                <g id="Group-3" transform="translate(6.5, 8)" fill="#FFFFFF">
                    <rect id="Rectangle-Copy" x="0" y="3" width="9" height="3" rx="0.391875029"></rect>
                    <path d="M0.391875029,3 L8.60812497,3 C8.82455157,3 9,3.17544843 9,3.39187503 L9,5.60812497 C9,5.82455157 8.82455157,6 8.60812497,6 L0.391875029,6 C0.175448426,6 1.37526917e-16,5.82455157 0,5.60812497 L0,3.39187503 C-8.20157658e-17,3.17544843 0.175448426,3 0.391875029,3 Z" id="Rectangle-Copy" transform="translate(4.5, 4.5) rotate(90) translate(-4.5, -4.5)"></path>
                </g>
                <g id="Group-2" stroke="#D9E7F6" stroke-width="1.5">
                    <rect id="Rectangle" x="2.95" y="1.75" width="16.1" height="7.44117647" rx="1"></rect>
                </g>
            </g>
        </g>
        <g id="Bildteil">
            <circle id="Oval" fill="#1068C9" cx="16" cy="16" r="16"></circle>
            <g id="Group" transform="translate(5, 6.1)">
                <rect id="Rectangle" stroke="#9FC3E9" stroke-width="1.5" x="2.95" y="0.75" width="16.1" height="7.44117647" rx="1"></rect>
                <rect id="Rectangle" fill="#9FC3E9" x="0" y="5" width="22" height="13" rx="1"></rect>
                <g id="Group-3" transform="translate(4, 5)" fill="#FFFFFF">
                    <rect id="Rectangle-Copy" x="0" y="4.5" width="13" height="4" rx="0.363883955"></rect>
                    <polygon id="Rectangle-Copy" transform="translate(6.5, 6.5) rotate(90) translate(-6.5, -6.5)" points="-8.20871149e-14 4.5 13 4.5 13 8.5 -8.20871149e-14 8.5"></polygon>
                </g>
                <g id="Group-2" transform="translate(2.2, 0)"></g>
            </g>
        </g>
    </g>
</svg>