<?xml version="1.0" encoding="UTF-8"?>
<svg width="138px" height="32px" viewBox="0 0 138 32" version="1.1" xmlns="http://www.w3.org/2000/svg" xmlns:xlink="http://www.w3.org/1999/xlink">
    <title>MKTools_Logo</title>
    <g id="MKTools_Logo" stroke="none" stroke-width="1" fill="none" fill-rule="evenodd">
        <g id="Text" transform="translate(39, 4.14)">
            <path d="M20.3725132,12.8432451 L20.3725132,12.8476543 C21.0903514,13.3458907 21.8169975,13.9323104 22.5524513,14.6157319 C23.2879052,15.2991534 24.0013395,16.0134392 24.6883504,16.7718166 C25.3797651,17.5257848 26.0359485,18.3106173 26.6613045,19.1174956 C27.2866605,19.9287831 27.83715,20.700388 28.3171768,21.4367196 L32.4260299,21.4367196 C31.8359052,20.4799295 31.1885297,19.5187302 30.4794993,18.5487125 C29.7704689,17.5831041 29.0306111,16.652769 28.2599259,15.7577072 C27.4892406,14.8670547 26.7009398,14.0293122 25.8994271,13.2444797 C25.0979145,12.4640564 24.3140176,11.7762257 23.5389284,11.1853968 C24.239151,10.5019753 24.9481814,9.78768959 25.6748274,9.02931217 C26.4014735,8.27534392 27.1237156,7.51696649 27.8415539,6.74977072 C28.5593921,5.98698413 29.2596147,5.2286067 29.9378177,4.47022928 C30.6160207,3.71626102 31.2633962,2.9887478 31.8667327,2.28768959 L27.7006286,2.28768959 C27.2206018,2.82119929 26.687728,3.42084656 26.1020072,4.08222222 C25.5118826,4.74359788 24.8909305,5.43142857 24.239151,6.14130511 C23.5873715,6.85118166 22.9267842,7.54783069 22.2661968,8.24007055 C21.6276291,8.90585538 21.0154848,9.53195767 20.4297641,10.1183774 C20.4077445,10.1404233 20.174337,10.3608818 20.174337,10.3608818 L20.174337,10.2947443 C20.174337,10.2903351 20.174337,10.2859259 20.174337,10.2815168 C20.174337,10.2771076 20.174337,10.2726984 20.174337,10.2682892 C20.0818547,9.07340388 19.9761608,7.90056437 19.8660629,6.74977072 C19.7163298,5.17569665 19.5577888,3.689806 19.39044,2.28768959 L16.2592561,2.28768959 C15.8540958,2.9887478 15.4048965,3.84412698 14.907254,4.85823633 C14.4096116,5.87234568 13.9031613,6.93495591 13.3923071,8.04606702 C12.877049,9.1615873 12.3705987,10.2903351 11.8773601,11.4411287 C11.3797177,12.5919224 10.9217105,13.6545326 10.4989346,14.6289594 C10.0761587,13.6545326 9.61374757,12.5919224 9.10729728,11.4411287 C8.600847,10.2903351 8.0899928,9.15717813 7.57473468,8.04606702 C7.05947657,6.93054674 6.55302628,5.86793651 6.05978775,4.85823633 C5.56214529,3.84412698 5.11294591,2.9887478 4.70778568,2.28768959 L1.49292736,2.28768959 C1.32557857,3.61485009 1.16703761,5.0610582 1.01730448,6.62190476 C0.867571356,8.18716049 0.731049975,9.80091711 0.607740341,11.4675838 C0.484430707,13.1342504 0.374332819,14.8141446 0.268638846,16.5072663 C0.16734879,18.200388 0.0748665637,19.8405996 0,21.4234921 L3.42184235,21.4234921 C3.49670892,19.1968607 3.58478723,16.9040917 3.6904812,14.5451852 C3.79177126,12.1906878 3.95031222,9.90673721 4.15289233,7.6977425 C4.35547244,8.10338624 4.59328388,8.60603175 4.87073056,9.20126984 C5.14817724,9.80091711 5.43883566,10.4402469 5.75151366,11.1192593 C6.06419166,11.8026808 6.38127358,12.5081481 6.70275941,13.2444797 C7.02424524,13.9808113 7.33692325,14.695097 7.64079342,15.3829277 C7.94466359,16.0751675 8.22651418,16.7233157 8.48194128,17.3317813 C8.73736838,17.9402469 8.96196807,18.4561199 9.14252861,18.8794004 L11.7364348,18.8794004 C11.9213993,18.4561199 12.1415951,17.9446561 12.3970222,17.3450088 C12.6524493,16.7453616 12.9342999,16.1016226 13.23817,15.4137919 C13.5420402,14.721552 13.8547182,14.0116755 14.176204,13.2753439 C14.4976899,12.5390123 14.8147718,11.8247266 15.1274498,11.1368959 C15.4401278,10.4446561 15.7351901,9.80532628 16.0082329,9.21890653 C16.2856796,8.6280776 16.523491,8.1254321 16.7260711,7.6977425 C16.9330552,9.90673721 17.0871922,12.1906878 17.1884822,14.5451852 C17.2897723,16.9040917 17.3822545,19.1924515 17.4571211,21.4234921 L20.8789635,21.4234921 C20.8040969,19.8405996 20.7160186,18.2136155 20.6103246,16.5469489 L20.3725132,12.8432451 Z" id="Path" fill="#1068C9" fill-rule="nonzero"></path>
            <g id="Group-11" transform="translate(35.32, 0)" fill="#0B3058">
                <polygon id="Fill-1" points="0 2.28983064 0 5.29782701 5.82624201 5.29782701 5.82624201 21.4140443 9.30050234 21.4140443 9.30050234 5.29782701 15.1263077 5.29782701 15.1263077 2.28983064"></polygon>
                <g id="Group-10" transform="translate(13.923, 0)">
                    <path d="M10.339811,14.1835311 C10.339811,12.7486975 10.034132,11.6129894 9.42364732,10.7759664 C8.81228929,9.93850286 7.95988153,9.51999135 6.86598734,9.51999135 C5.77165647,9.51999135 4.91881202,9.93850286 4.30832736,10.7759664 C3.69740602,11.6129894 3.391727,12.7486975 3.391727,14.1835311 C3.391727,15.6373079 3.69740602,16.7871132 4.30832736,17.632947 C4.91881202,18.4796619 5.77165647,18.9025788 6.86598734,18.9025788 C7.95988153,18.9025788 8.81228929,18.4796619 9.42364732,17.632947 C10.034132,16.7871132 10.339811,15.6373079 10.339811,14.1835311 M13.7319747,14.1835311 C13.7319747,15.3245257 13.5677814,16.3637558 13.2393948,17.3021027 C12.9110082,18.2404495 12.4459394,19.0404673 11.8441884,19.7025965 C11.2424375,20.3651663 10.5175415,20.8801558 9.66950058,21.2480054 C8.82145966,21.6158549 7.88695525,21.8 6.86598734,21.8 C5.84458275,21.8 4.91444518,21.6158549 4.07557463,21.2480054 C3.23670407,20.8801558 2.51661165,20.3651663 1.91486068,19.7025965 C1.31310971,19.0404673 0.843237394,18.2404495 0.50611711,17.3021027 C0.168560142,16.3637558 0,15.3245257 0,14.1835311 C0,13.0434177 0.168560142,12.0085929 0.50611711,11.0790568 C0.843237394,10.1504018 1.31747655,9.3543489 1.92839789,8.69221965 C2.53931924,8.02964985 3.26421519,7.51950635 4.10308574,7.16090807 C4.94195629,6.80186926 5.86292349,6.62257012 6.86598734,6.62257012 C7.86861451,6.62257012 8.79438523,6.80186926 9.64242616,7.16090807 C10.4904671,7.51950635 11.2149263,8.02964985 11.817114,8.69221965 C12.418865,9.3543489 12.8878639,10.1504018 13.2254209,11.0790568 C13.5629779,12.0085929 13.7319747,13.0434177 13.7319747,14.1835311" id="Fill-2"></path>
                    <path d="M26.1502283,14.1835311 C26.1502283,12.7486975 25.8445493,11.6129894 25.2340646,10.7759664 C24.6227066,9.93850286 23.7702988,9.51999135 22.6764046,9.51999135 C21.5820738,9.51999135 20.7292293,9.93850286 20.1187447,10.7759664 C19.5078233,11.6129894 19.2021443,12.7486975 19.2021443,14.1835311 C19.2021443,15.6373079 19.5078233,16.7871132 20.1187447,17.632947 C20.7292293,18.4796619 21.5820738,18.9025788 22.6764046,18.9025788 C23.7702988,18.9025788 24.6227066,18.4796619 25.2340646,17.632947 C25.8445493,16.7871132 26.1502283,15.6373079 26.1502283,14.1835311 M29.542392,14.1835311 C29.542392,15.3245257 29.3781987,16.3637558 29.0498121,17.3021027 C28.7214255,18.2404495 28.2563567,19.0404673 27.6546057,19.7025965 C27.0528548,20.3651663 26.3279588,20.8801558 25.4799179,21.2480054 C24.631877,21.6158549 23.6973725,21.8 22.6764046,21.8 C21.6550001,21.8 20.7248625,21.6158549 19.8859919,21.2480054 C19.0471214,20.8801558 18.327029,20.3651663 17.725278,19.7025965 C17.123527,19.0404673 16.6536547,18.2404495 16.3165344,17.3021027 C15.9789774,16.3637558 15.8104173,15.3245257 15.8104173,14.1835311 C15.8104173,13.0434177 15.9789774,12.0085929 16.3165344,11.0790568 C16.6536547,10.1504018 17.1278939,9.3543489 17.7388152,8.69221965 C18.3497365,8.02964985 19.0746325,7.51950635 19.913503,7.16090807 C20.7523736,6.80186926 21.6733408,6.62257012 22.6764046,6.62257012 C23.6790318,6.62257012 24.6048025,6.80186926 25.4528435,7.16090807 C26.3008844,7.51950635 27.0253436,8.02964985 27.6275313,8.69221965 C28.2292823,9.3543489 28.6982812,10.1504018 29.0358382,11.0790568 C29.3733952,12.0085929 29.542392,13.0434177 29.542392,14.1835311" id="Fill-4"></path>
                    <path d="M37.118952,21.6894689 C36.1342289,21.6709663 35.3176293,21.5608317 34.6708998,21.3586246 C34.023297,21.1564174 33.5080095,20.8665431 33.1250374,20.4890017 C32.7425019,20.1123413 32.4730677,19.6431679 32.3184814,19.081922 C32.1630218,18.5211165 32.0861654,17.8814547 32.0861654,17.1642582 L32.0861654,0.55155411 L35.3957958,0 L35.3957958,16.5294423 C35.3957958,16.9342971 35.427237,17.2743928 35.4914296,17.5501698 C35.5551855,17.8259469 35.6691601,18.0611944 35.8333534,18.2541503 C35.9975467,18.4475466 36.2206924,18.5946865 36.5036638,18.6955698 C36.7861986,18.7968936 37.1464631,18.8748689 37.5840208,18.9299362 L37.118952,21.6894689 Z" id="Fill-6"></path>
                    <path d="M43.5745435,19.0131099 C44.4496588,19.0131099 45.0880913,18.9073806 45.4894041,18.6954817 C45.8902803,18.4844637 46.0911551,18.1210195 46.0911551,17.6055896 C46.0911551,17.1276054 45.8763064,16.7320019 45.4483558,16.4187791 C45.0195318,16.1059968 44.3129766,15.7663417 43.3282535,15.3980515 C42.7265025,15.1773418 42.1745336,14.9425348 41.67322,14.6940711 C41.1714697,14.446048 40.7387156,14.1561737 40.3740842,13.8253293 C40.0090161,13.4940444 39.7216778,13.093595 39.512506,12.6244216 C39.3024609,12.1556887 39.1980933,11.5807861 39.1980933,10.8997137 C39.1980933,9.5750146 39.6806295,8.53137907 40.6474486,7.76792597 C41.6138309,7.00447288 42.9269406,6.62252606 44.586341,6.62252606 C45.4252115,6.62252606 46.2278373,6.70138244 46.9937816,6.85689251 C47.7597258,7.01372419 48.3339657,7.16526941 48.7169378,7.31240924 L48.1151869,10.0168746 C47.7501188,9.85123219 47.2854867,9.69924644 46.7204172,9.56135791 C46.154911,9.42346938 45.4981378,9.35430485 44.7505343,9.35430485 C44.075857,9.35430485 43.5286916,9.46972592 43.1094747,9.69924644 C42.689821,9.92964803 42.4802126,10.2838409 42.4802126,10.7622657 C42.4802126,11.0010375 42.5212609,11.2129365 42.6033576,11.396641 C42.6854542,11.5807861 42.8265032,11.7512744 43.027378,11.907225 C43.2278161,12.0636162 43.4924468,12.2200073 43.8203967,12.3763985 C44.1487833,12.5327896 44.5496595,12.6935861 45.0243353,12.8592286 C45.8081837,13.1535082 46.4741272,13.4433825 47.0212927,13.7284109 C47.5680214,14.0138798 48.019553,14.3354728 48.375014,14.6940711 C48.7309117,15.0531099 48.9903022,15.4623701 49.1544955,15.9218517 C49.3186888,16.3822144 49.4007855,16.934209 49.4007855,17.5778357 C49.4007855,18.957602 48.8946683,20.0021186 47.8828708,20.7100639 C46.8706366,21.4180091 45.4252115,21.7726426 43.5470323,21.7726426 C42.2889449,21.7726426 41.2767106,21.6660323 40.5107664,21.4550144 C39.7448221,21.2435559 39.206827,21.0735081 38.8972179,20.9448709 L39.4714577,18.1575842 C39.9636009,18.3602319 40.5518147,18.5531877 41.2356623,18.7368923 C41.9195099,18.9210373 42.6989914,19.0131099 43.5745435,19.0131099" id="Fill-8"></path>
                </g>
            </g>
        </g>
        <g id="Bildteil">
            <circle id="Oval" fill="#1068C9" cx="16" cy="16" r="16"></circle>
            <g id="Group" transform="translate(5, 6.1)">
                <rect id="Rectangle" stroke="#9FC3E9" stroke-width="1.5" x="2.95" y="0.75" width="16.1" height="7.44117647" rx="1"></rect>
                <rect id="Rectangle" fill="#9FC3E9" x="0" y="5" width="22" height="13" rx="1"></rect>
                <g id="Group-3" transform="translate(4, 5)" fill="#FFFFFF">
                    <rect id="Rectangle-Copy" x="0" y="4.5" width="13" height="4" rx="0.363883955"></rect>
                    <polygon id="Rectangle-Copy" transform="translate(6.5, 6.5) rotate(90) translate(-6.5, -6.5)" points="-8.20871149e-14 4.5 13 4.5 13 8.5 -8.20871149e-14 8.5"></polygon>
                </g>
                <g id="Group-2" transform="translate(2.2, 0)"></g>
            </g>
        </g>
    </g>
</svg>